<svg xmlns="http://www.w3.org/2000/svg" width="13.954" height="15.044" viewBox="0 0 13.954 15.044"><path d="M601.323,558.4v0c0-.006,0-.013,0-.019v-.007c0-.006,0-.012,0-.018v-.005c0-.007,0-.015,0-.022l0-.005c0-.007,0-.014-.007-.021h0l-.009-.021,0-.005-.011-.019,0,0-.01-.015,0-.005-.014-.016-.005-.005-.012-.012,0,0-.017-.013-.006,0,0,0-.015-.009,0,0-.02-.01h0l-6.707-2.969a.27.27,0,0,0-.219,0l-6.707,2.969h0l-.02.01h0l-.015.009,0,0-.006,0-.017.013,0,0-.012.012-.005.006-.014.016,0,.005-.011.015,0,0-.011.019,0,.005-.009.021h0c0,.007,0,.014-.007.021v.005c0,.007,0,.014-.005.022v0c0,.006,0,.012,0,.018v.007c0,.006,0,.013,0,.019v0h0v8.581a.271.271,0,0,0,.162.248l6.707,2.947h0l.019.007.006,0,.024.006h0l.021,0h.063l.021,0h0l.024-.006.006,0,.019-.007h0l6.707-2.947a.271.271,0,0,0,.162-.248V558.4Zm-6.977-2.677,6.024,2.667-1.481.623-5.974-2.655Zm0,5.2-6.024-2.532,1.584-.7,6.019,2.57Zm-2.1-4.269L598.2,559.3l-1.585.666-6.036-2.577Zm4.642,3.787,1.758-.739v3.114l-.842-.354a.271.271,0,0,0-.331.1l-.585.889Zm-8.979-1.637,6.165,2.592v8.12l-6.165-2.71Zm12.872,8-6.165,2.71V561.4l1.731-.728v3.688a.271.271,0,0,0,.5.149l.958-1.457,1.01.425a.271.271,0,0,0,.375-.249v-3.749l1.595-.67Z" transform="translate(-587.369 -555.158)"/></svg>