<svg xmlns="http://www.w3.org/2000/svg" width="29.398" height="22.865" viewBox="0 0 29.398 22.865"><defs><style>.a{fill:#ededed;}</style></defs><path class="a" d="M15.424,40.564a1.3,1.3,0,0,1-1.48,1.383H12.7V39.181h1.245A1.3,1.3,0,0,1,15.424,40.564Zm2.424,3.195c0,.424.367.7.944.7a1.173,1.173,0,0,0,1.286-1.118v-.393l-1.2.077C18.2,43.07,17.848,43.321,17.848,43.759ZM29.4,33.45V51.415a2.45,2.45,0,0,1-2.45,2.45H2.45A2.45,2.45,0,0,1,0,51.415V33.45A2.45,2.45,0,0,1,2.45,31h24.5A2.45,2.45,0,0,1,29.4,33.45ZM6.523,39.482a1.414,1.414,0,0,0,1.128-.531,1.684,1.684,0,0,0,.393-1.21,1.678,1.678,0,0,0-1.118.577,1.6,1.6,0,0,0-.4,1.164Zm3.093,3.8A1.684,1.684,0,0,1,8.6,41.754a1.718,1.718,0,0,1,.817-1.439,1.757,1.757,0,0,0-1.383-.75c-.623-.036-1.153.352-1.449.352s-.75-.337-1.24-.327a1.83,1.83,0,0,0-1.557.949,3.911,3.911,0,0,0,.475,3.8c.316.464.7.975,1.2.954.475-.02.663-.306,1.235-.306s.74.306,1.24.3c.521-.01.842-.464,1.164-.929A4.32,4.32,0,0,0,9.616,43.285Zm6.911-2.725a2.185,2.185,0,0,0-2.292-2.286H11.621v6.962H12.7V42.856h1.5A2.211,2.211,0,0,0,16.526,40.559Zm4.593,1.21c0-1.005-.806-1.654-2.042-1.654a1.812,1.812,0,0,0-2.026,1.557h.975a.95.95,0,0,1,1.021-.709c.663,0,1.031.306,1.031.878v.383l-1.347.082c-1.256.077-1.934.592-1.934,1.485a1.53,1.53,0,0,0,1.7,1.5,1.782,1.782,0,0,0,1.592-.888h.02v.837h1V41.769Zm5.216-1.587h-1.1L23.967,44.3h-.02l-1.271-4.114H21.538L23.37,45.25l-.1.306a.862.862,0,0,1-.914.725c-.087,0-.25-.01-.316-.015V47.1a2.645,2.645,0,0,0,.413.026c1.056,0,1.552-.4,1.985-1.623Z" transform="translate(0 -31)"/></svg>