<svg xmlns="http://www.w3.org/2000/svg" width="29.413" height="22.865" viewBox="0 0 29.413 22.865"><defs><style>.a{fill:#ededed;}</style></defs><path class="a" d="M16.4,38.931c0-.837-.72-.939-1.4-.939l-2-.015v3.537h.837V40.232h.919c.939,0,.74.526.755,1.281h.847v-.689c0-.47-.077-.771-.561-.939a1,1,0,0,0,.6-.954Zm-1.5.577H13.846v-.781h1.072c.26,0,.546.051.546.378S15.193,39.508,14.9,39.508Zm-.852,4.568H11.36l-1.072,1.164L9.242,44.076H5.848l-.005,3.537H9.181l1.087-1.174,1.041,1.174h1.643l.005-1.189c.965,0,2.516.235,2.516-1.189,0-.883-.628-1.159-1.424-1.159Zm-5.3,2.792H6.68v-.7H8.533v-.72H6.68v-.638H8.808l.914,1.031Zm3.358.419-1.291-1.434,1.291-1.4ZM14.04,45.7H12.958v-.9h1.1c.286,0,.521.117.521.429C14.575,45.561,14.341,45.7,14.04,45.7Zm-1.613-6.977v-.745H9.594v3.537h2.833v-.73H10.441v-.7h1.929v-.72H10.441v-.638ZM29.208,43.4h0ZM19.276,45.03c0-.837-.72-.954-1.383-.954H15.882l-.005,3.537h.847l.005-1.291h.9c.561,0,.755.1.755.7l-.005.587h.847l.005-.7c0-.454-.092-.771-.561-.939A1.01,1.01,0,0,0,19.276,45.03Zm-1.49.572H16.729v-.8H17.8c.26,0,.546.051.546.378C18.347,45.535,18.072,45.6,17.786,45.6ZM8.966,41.519V37.982H7.558l-1.005,2.4-1.108-2.4H4.062v3.353L2.628,37.982H1.377L-.139,41.519H.775l.327-.781H2.862l.327.781H4.914V38.752l1.225,2.766h.745l1.225-2.766v2.766ZM1.4,40l.572-1.409L2.561,40Zm24.365,8.11v-.23c-.551.286-.2.23-8,.23,0-1.286.005-1.22,0-1.286-.087-.005-.163-.005-.48-.005,0,.914-.005.347-.005,1.291H15.265c0-.618.005-.781.005-1.49a3.307,3.307,0,0,1-1.751.316c0,.75-.005.424-.005,1.174h-2.5c-.26-.291-.138-.158-.786-.888-.163.179-.653.709-.822.888H5.225V43.4H9.467c.255.286.143.158.791.878.163-.179.623-.684.8-.878h2.96a2.437,2.437,0,0,1,1.24.286V43.4c2.771,0,3.282-.071,3.864.26V43.4h3.991v.265c.582-.352,1-.265,3.312-.265v.255c.526-.3.847-.265,2.771-.255V34.45A2.45,2.45,0,0,0,26.748,32H2.25A2.45,2.45,0,0,0-.2,34.45v5.6C.28,38.936.805,37.706.979,37.3H3.005c.219.515.082.189.459,1.077V37.3H5.812c.148.316.567,1.225.709,1.531.3-.694.515-1.22.643-1.531h5.257c0-.005.587,0,.592,0,2.23.01,2.736-.041,3.287.271V37.3h2.036v.475A2.441,2.441,0,0,1,19.9,37.3h1.409c0,.026.1.015.117.015h1.654c.214.5.133.306.449,1.051V37.318h2.21c.25.408-.051-.092.572.939v-.939h2.036v4.7H26.227c-.276-.459-.071-.112-.674-1.118v1.118H22.859c-.327-.755-.005-.015-.337-.781h-.97c-.214.51-.112.265-.327.781H19.858a2.373,2.373,0,0,1-1.516-.454v.454H14.948c-.015-.709-.005-1.266-.005-1.266a3.643,3.643,0,0,0-.5-.01v1.281H7.527v-.582c-.128.286-.138.3-.26.582H5.761c-.2-.454-.148-.327-.26-.582v.582H2.8c-.214-.515-.112-.271-.327-.781h-.98c-.214.51-.112.265-.327.781H-.19v10.4a2.45,2.45,0,0,0,2.45,2.45h24.5a2.45,2.45,0,0,0,2.45-2.45V47.8C28.565,48.225,27.544,48.113,25.768,48.113Zm1.853-3.292h1.536v-.745H27.478a1.071,1.071,0,0,0-1.215,1.056c0,1.684,2.179.653,2.179,1.4,0,.26-.219.327-.429.327H26.381l-.005.755h1.633a1.337,1.337,0,0,0,1.148-.454V45.841c-.536-.7-2.006-.066-2.006-.689C27.151,44.856,27.386,44.821,27.621,44.821Zm-2.909,2.031H23.068l-.005.755h1.643c.755,0,1.337-.286,1.337-1.123,0-1.694-2.19-.572-2.19-1.342,0-.286.25-.327.47-.327h1.552V44.07H24.181a1.058,1.058,0,0,0-1.2,1.056c0,1.684,2.179.638,2.179,1.4C25.156,46.8,24.921,46.852,24.712,46.852Zm-2.154-2.047v-.73H19.741l-.005,3.537h2.817l.005-.73-1.97-.015v-.7h1.934v-.72H20.593v-.638Zm-2.873-5.517c-.015.01-.071.112-.071.388,0,.306.046.393.056.4a.4.4,0,0,0,.174.026l.373-.863c-.056,0-.107-.005-.158-.005C19.771,39.237,19.7,39.273,19.684,39.288Zm1.041-.536h0Zm-.827-.776c-1.2,0-1.735.612-1.735,1.8,0,1.133.521,1.735,1.684,1.735h.98l.327-.781H22.9l.337.781h1.72V38.865l1.592,2.649h1.2V37.992H26.9v2.455l-1.485-2.455H24.12V41.33L22.7,37.992H21.43l-1.2,2.782h-.378c-.679,0-.822-.413-.822-1.016,0-1.215.8-1.021,1.689-1.005v-.776Zm2.149.618L22.619,40H21.455Zm-5.16-.612v3.537h.863V37.982Z" transform="translate(0.2 -32)"/></svg>