<svg xmlns="http://www.w3.org/2000/svg" width="29.398" height="22.865" viewBox="0 0 29.398 22.865"><defs><style>.a{fill:#ededed;}</style></defs><path class="a" d="M26.56,40.375c0-.4-.281-.618-.8-.618h-.25v1.271h.24C26.279,41.029,26.56,40.8,26.56,40.375ZM26.948,32H2.45A2.45,2.45,0,0,0,0,34.45V52.415a2.45,2.45,0,0,0,2.45,2.45h24.5a2.45,2.45,0,0,0,2.45-2.45V34.45A2.45,2.45,0,0,0,26.948,32ZM24.7,39.089c1.153,0,2.7-.209,2.7,1.245a1.109,1.109,0,0,1-.954,1.184l1.317,1.756h-1L25.626,41.6h-.112v1.674H24.7Zm-2.853.005h2.312v.715h-1.5v.929h1.444v.7H22.661v1.133h1.5v.7H21.844Zm-3.506,0,1.118,2.817,1.133-2.817h.893l-1.812,4.3h-.439l-1.786-4.3Zm-2.853-.153a2.276,2.276,0,1,1-2.276,2.276A2.275,2.275,0,0,1,15.485,38.941Zm-2.516.311v.97a1.393,1.393,0,1,0,0,1.95v.97a2.2,2.2,0,1,1,0-3.889ZM8.008,42.636c.582,0,1.143-.781-.168-1.245-.766-.281-1.031-.582-1.031-1.159,0-1.184,1.562-1.6,2.537-.73l-.429.551c-.531-.592-1.271-.316-1.271.128,0,.225.138.352.628.526.929.337,1.2.638,1.2,1.307,0,1.506-1.98,1.909-2.889.577l.526-.505a.967.967,0,0,0,.893.551Zm-5.18.643H1.633V39.094H2.827a2.1,2.1,0,1,1,0,4.185Zm3.445,0H5.456V39.094h.817Zm21.492,9.187a.771.771,0,0,1-.766.766H6.533c9.677-1.817,19.532-7.1,21.232-8.166ZM3.782,40.146a1.486,1.486,0,0,0-1.118-.337H2.45v2.766h.214a1.574,1.574,0,0,0,1.118-.327,1.431,1.431,0,0,0,.454-1.056A1.392,1.392,0,0,0,3.782,40.146Z" transform="translate(0 -32)"/></svg>