<svg xmlns="http://www.w3.org/2000/svg" width="29.398" height="22.865" viewBox="0 0 29.398 22.865"><defs><style>.a{fill:#ededed;}</style></defs><path class="a" d="M24.646,52.257a.572.572,0,1,1-.572-.6A.57.57,0,0,1,24.646,52.257Zm-15.863-.6a.6.6,0,1,0,.556.6A.564.564,0,0,0,8.784,51.659Zm6-.015a.473.473,0,0,0-.485.444h.975A.469.469,0,0,0,14.781,51.644Zm5.5.015a.6.6,0,1,0,.572.6A.564.564,0,0,0,20.282,51.659Zm5.4,1.332c0,.015.015.026.015.056,0,.015-.015.026-.015.056a.179.179,0,0,0-.026.041.066.066,0,0,1-.056.026c-.015.015-.026.015-.056.015a.1.1,0,0,1-.056-.015c-.015,0-.026-.015-.041-.026s-.026-.026-.026-.041a.093.093,0,0,1-.015-.056c0-.026,0-.041.015-.056a.1.1,0,0,1,.026-.056.179.179,0,0,1,.041-.026.093.093,0,0,1,.056-.015c.026,0,.041,0,.056.015s.041.015.056.026S25.672,52.966,25.687,52.992Zm-.112.071c.026,0,.026-.015.041-.015a.062.062,0,0,0,0-.082c-.015,0-.026-.015-.056-.015h-.082v.179h.041v-.071h.015l.056.071h.041l-.056-.066ZM29.4,35.45V53.415a2.45,2.45,0,0,1-2.45,2.45H2.45A2.45,2.45,0,0,1,0,53.415V35.45A2.45,2.45,0,0,1,2.45,33h24.5A2.45,2.45,0,0,1,29.4,35.45ZM3.266,42.575a7.065,7.065,0,0,0,10.973,5.89,7.611,7.611,0,0,1,0-11.764A7.065,7.065,0,0,0,3.266,42.575ZM14.7,48.128a7.066,7.066,0,0,0,0-11.1A7.066,7.066,0,0,0,14.7,48.128ZM7.436,52.022a.715.715,0,0,0-.75-.75.73.73,0,0,0-.653.332.677.677,0,0,0-.623-.332.648.648,0,0,0-.541.276v-.225H4.45V53.2h.419c0-.965-.128-1.541.459-1.541.521,0,.419.521.419,1.541h.4c0-.934-.128-1.541.459-1.541.521,0,.419.51.419,1.541h.419V52.022Zm2.292-.7h-.4v.225a.736.736,0,0,0-.6-.276.987.987,0,0,0,0,1.97.708.708,0,0,0,.6-.276V53.2h.4Zm2.067,1.307c0-.766-1.169-.419-1.169-.776,0-.291.607-.245.944-.056l.168-.332c-.48-.311-1.541-.306-1.541.419s1.169.424,1.169.766c0,.322-.689.3-1.056.041l-.179.322C10.7,53.4,11.795,53.318,11.795,52.629ZM13.6,53.1l-.112-.347c-.194.107-.623.225-.623-.209V51.7h.669v-.378h-.669v-.572h-.419v.572H12.06V51.7h.388v.852c0,.9.883.735,1.153.556Zm.679-.684h1.4c0-.827-.378-1.153-.888-1.153a.919.919,0,0,0-.929.985,1.018,1.018,0,0,0,1.725.725L15.4,52.67C15,53,14.4,52.966,14.28,52.42Zm3.016-1.1a.6.6,0,0,0-.776.225v-.225H16.1V53.2h.419V52.139a.426.426,0,0,1,.653-.429l.122-.388Zm.541.934c0-.582.592-.771,1.056-.429l.194-.332a1.01,1.01,0,1,0,0,1.531l-.194-.332C18.425,53.027,17.838,52.828,17.838,52.257Zm3.4-.934h-.419v.225a.928.928,0,1,0,0,1.419V53.2h.419Zm1.72,0a.613.613,0,0,0-.776.225v-.225h-.4V53.2h.4V52.139a.428.428,0,0,1,.653-.429Zm2.057-.76h-.4v.985a.928.928,0,1,0,0,1.419V53.2h.4Zm.388-3.833v.235h.041v-.235h.1v-.041H25.31v.041h.1Zm.337,6.318a.156.156,0,0,0-.015-.082c-.015-.015-.026-.041-.041-.056s-.041-.026-.056-.041c-.026,0-.056-.015-.082-.015a.542.542,0,0,1-.071.015.267.267,0,0,0-.056.041.08.08,0,0,0-.041.056.156.156,0,0,0-.015.082.148.148,0,0,0,.015.071.08.08,0,0,0,.041.056.177.177,0,0,0,.056.041.139.139,0,0,0,.071.015.156.156,0,0,0,.082-.015c.015-.015.041-.026.056-.041s.026-.041.041-.056A.148.148,0,0,0,25.743,53.048Zm.163-6.364h-.071l-.082.179-.082-.179H25.6v.276h.041V46.75l.082.179h.056l.071-.179v.209h.056Zm.225-4.109A7.065,7.065,0,0,0,15.158,36.7a7.611,7.611,0,0,1,0,11.764,7.065,7.065,0,0,0,10.973-5.885Z" transform="translate(0 -33)"/></svg>