<svg xmlns="http://www.w3.org/2000/svg" width="29.398" height="22.865" viewBox="0 0 29.398 22.865"><defs><style>.a{fill:#ededed;}</style></defs><path class="a" d="M9.508,43.545a1.1,1.1,0,0,1-1.123,1.1.737.737,0,0,1-.817-.766,1.107,1.107,0,0,1,1.108-1.123A.766.766,0,0,1,9.508,43.545Zm-5.4-2.475h-.24a.16.16,0,0,0-.163.138L3.486,42.57l.419-.015c.561,0,1-.077,1.1-.725C5.119,41.146,4.685,41.069,4.109,41.069Zm14.495,0h-.23a.15.15,0,0,0-.163.138L18,42.57l.408-.015c.663,0,1.123-.153,1.123-.919C19.522,41.095,19.037,41.069,18.6,41.069ZM29.4,34.45V52.415a2.45,2.45,0,0,1-2.45,2.45H2.45A2.45,2.45,0,0,1,0,52.415V34.45A2.45,2.45,0,0,1,2.45,32h24.5A2.45,2.45,0,0,1,29.4,34.45ZM6.548,41.36c0-1.072-.827-1.429-1.771-1.429H2.736a.27.27,0,0,0-.265.24l-.837,5.211a.176.176,0,0,0,.163.2h.97a.326.326,0,0,0,.281-.291l.23-1.358c.051-.367.674-.24.919-.24A2.158,2.158,0,0,0,6.548,41.36Zm4.3.449h-.97c-.194,0-.2.281-.214.419a1.3,1.3,0,0,0-1.21-.51,2.277,2.277,0,0,0-2.2,2.307,1.523,1.523,0,0,0,1.618,1.643,1.988,1.988,0,0,0,1.353-.607,1.364,1.364,0,0,0-.051.316c0,.117.051.2.163.2h.878c.138,0,.255-.148.281-.291l.521-3.282A.174.174,0,0,0,10.846,41.809Zm2.067,5,3.251-4.726a.1.1,0,0,0,.026-.087.182.182,0,0,0-.163-.179h-.98a.289.289,0,0,0-.23.128l-1.353,1.99L12.9,42.019a.31.31,0,0,0-.281-.2h-.954a.182.182,0,0,0-.163.179c0,.061,1,2.9,1.082,3.169a13.186,13.186,0,0,0-1.046,1.613.164.164,0,0,0,.163.163h.98a.3.3,0,0,0,.23-.133Zm8.13-5.446c0-1.072-.827-1.429-1.771-1.429H17.246a.281.281,0,0,0-.281.24l-.827,5.206a.182.182,0,0,0,.163.2h1.046a.219.219,0,0,0,.2-.163l.23-1.48c.051-.367.674-.24.919-.24a2.156,2.156,0,0,0,2.343-2.338Zm4.3.449h-.97c-.194,0-.2.281-.219.419a1.28,1.28,0,0,0-1.21-.51,2.277,2.277,0,0,0-2.2,2.307,1.523,1.523,0,0,0,1.618,1.643,1.929,1.929,0,0,0,1.352-.607,2.268,2.268,0,0,0-.051.316c0,.117.051.2.163.2H24.7c.138,0,.255-.148.281-.291l.521-3.282A.174.174,0,0,0,25.34,41.809Zm2.424-1.7a.172.172,0,0,0-.163-.179h-.944a.169.169,0,0,0-.163.138l-.827,5.308-.015.026a.181.181,0,0,0,.179.179h.842a.316.316,0,0,0,.265-.291l.827-5.165Zm-4.593,2.644a1.1,1.1,0,0,0-1.108,1.123.748.748,0,0,0,.827.766A1.088,1.088,0,0,0,24,43.545.76.76,0,0,0,23.171,42.754Z" transform="translate(0 -32)"/></svg>