<svg xmlns="http://www.w3.org/2000/svg" width="29.398" height="22.865" viewBox="0 0 29.398 22.865"><defs><style>.a{fill:#ededed;}</style></defs><path class="a" d="M25.131,41.636c-.454,0-.954.342-.954,1.159H26.05C26.05,41.978,25.575,41.636,25.131,41.636Zm-5.992.133a1.087,1.087,0,0,0-.868.357l.01,2.695a1.1,1.1,0,0,0,.857.342c.669,0,1.118-.73,1.118-1.7C20.257,42.509,19.8,41.764,19.139,41.769ZM26.948,32H2.45A2.45,2.45,0,0,0,0,34.45V52.415a2.45,2.45,0,0,0,2.45,2.45h24.5a2.45,2.45,0,0,0,2.45-2.45V34.45A2.45,2.45,0,0,0,26.948,32ZM6.237,44.714c0,1.307-1.036,2.047-2.547,2.057a5.016,5.016,0,0,1-1.98-.413v-1.73A4.636,4.636,0,0,0,3.7,45.2c.4,0,.694-.107.694-.444,0-.868-2.756-.541-2.756-2.547,0-1.286.98-2.052,2.45-2.052a4.785,4.785,0,0,1,1.8.332v1.7a4.076,4.076,0,0,0-1.8-.464c-.383,0-.618.112-.618.393,0,.817,2.771.429,2.771,2.588Zm3.511-2.889H8.37V44.4c0,1.067,1.148.735,1.378.643V46.52a2.789,2.789,0,0,1-1.271.24A1.824,1.824,0,0,1,6.594,44.9l.01-5.813,1.771-.378v1.572H9.748Zm3.777.122a1.287,1.287,0,0,0-1.383.378v4.308H10.33V40.278H11.9l.112.536a1.233,1.233,0,0,1,1.511-.536h.005Zm2.251,4.685H13.954V40.278h1.822Zm0-7.293-1.822.388V38.252l1.822-.388Zm3.782,7.426a2.043,2.043,0,0,1-1.281-.459l-.005,2.052-1.812.383V40.278h1.6l.092.449a2.047,2.047,0,0,1,1.419-.567c1.271,0,2.47,1.148,2.47,3.256,0,2.3-1.184,3.343-2.48,3.348Zm8.186-2.628H24.2c.082.847.7,1.1,1.409,1.1a3.826,3.826,0,0,0,1.781-.4v1.46a4.1,4.1,0,0,1-2.011.47c-1.766,0-3-1.108-3-3.292,0-1.848,1.046-3.312,2.771-3.312s2.618,1.465,2.618,3.323C27.765,43.657,27.749,44.035,27.744,44.137Z" transform="translate(0 -32)"/></svg>