<svg xmlns="http://www.w3.org/2000/svg" width="29.398" height="22.865" viewBox="0 0 29.398 22.865"><defs><style>.a{fill:#ededed;}</style></defs><path class="a" d="M23.993,42.172s.388,1.9.475,2.3h-1.7c.168-.454.817-2.22.817-2.22-.01.015.168-.464.271-.76l.143.684Zm5.4-7.722V52.415a2.45,2.45,0,0,1-2.45,2.45H2.45A2.45,2.45,0,0,1,0,52.415V34.45A2.45,2.45,0,0,1,2.45,32h24.5A2.45,2.45,0,0,1,29.4,34.45ZM7.783,47.271l3.226-7.921H8.84l-2.006,5.41-.219-1.1L5.9,40.018a.853.853,0,0,0-.929-.669h-3.3l-.036.158a8.1,8.1,0,0,1,2.154.873l1.827,6.89Zm4.818.01,1.286-7.931H11.836l-1.281,7.931H12.6Zm7.14-2.593c.01-.9-.541-1.592-1.72-2.159-.72-.362-1.159-.607-1.159-.98.01-.337.373-.684,1.179-.684a3.517,3.517,0,0,1,1.526.3l.184.087.281-1.715a5.1,5.1,0,0,0-1.837-.337c-2.026,0-3.45,1.082-3.46,2.623-.015,1.138,1.021,1.771,1.8,2.154.791.388,1.062.643,1.062.985-.01.531-.643.776-1.23.776a4.088,4.088,0,0,1-1.924-.424l-.271-.128-.286,1.781a6.263,6.263,0,0,0,2.286.424c2.154.005,3.557-1.062,3.573-2.705Zm7.207,2.593-1.654-7.931H23.707a1.009,1.009,0,0,0-1.072.658l-3.047,7.273h2.154s.352-.98.429-1.189H24.8c.061.281.245,1.189.245,1.189Z" transform="translate(0 -32)"/></svg>