<svg xmlns="http://www.w3.org/2000/svg" xmlns:xlink="http://www.w3.org/1999/xlink" width="114" height="114" viewBox="0 0 114 114"><defs><style>.a{fill:#fff;}.b{filter:url(#a);}</style><filter id="a" x="0" y="0" width="114" height="114" filterUnits="userSpaceOnUse"><feOffset dy="3" input="SourceAlpha"/><feGaussianBlur stdDeviation="10" result="b"/><feFlood flood-opacity="0.161"/><feComposite operator="in" in2="b"/><feComposite in="SourceGraphic"/></filter></defs><g transform="translate(-314 -815)"><g class="b" transform="matrix(1, 0, 0, 1, 314, 815)"><path class="a" d="M27,0A27,27,0,1,1,0,27,27,27,0,0,1,27,0Z" transform="translate(30 27)"/></g><path d="M6.109,40.873A1.157,1.157,0,1,0,7.266,42.03,1.155,1.155,0,0,0,6.109,40.873Zm6.172,0a1.157,1.157,0,1,0,1.157,1.157A1.155,1.155,0,0,0,12.281,40.873Zm6.172,0a1.157,1.157,0,1,0,1.157,1.157A1.155,1.155,0,0,0,18.454,40.873ZM12.281,32C5.463,32-.063,36.489-.063,42.03a8.864,8.864,0,0,0,2.551,6.09A12.237,12.237,0,0,1,.25,51.65,1.158,1.158,0,0,0,1.094,53.6,11.7,11.7,0,0,0,7.8,51.37a14.893,14.893,0,0,0,4.48.69c6.818,0,12.345-4.489,12.345-10.03S19.1,32,12.281,32Zm0,18.517A13.3,13.3,0,0,1,8.269,49.9l-.733-.231-.627.444a10.405,10.405,0,0,1-4.947,1.91A13.009,13.009,0,0,0,3.93,48.665l.342-.9-.661-.7A7.288,7.288,0,0,1,1.48,42.03c0-4.677,4.846-8.487,10.8-8.487s10.8,3.809,10.8,8.487S18.237,50.517,12.281,50.517Z" transform="translate(359.066 826)"/></g></svg>