<svg xmlns="http://www.w3.org/2000/svg" width="17.624" height="15.68" viewBox="0 0 17.624 15.68"><defs><style>.a{fill:none;}</style></defs><path class="a" d="M16.226,1.534A4.739,4.739,0,0,0,12.7,0,4.434,4.434,0,0,0,9.932.956a5.666,5.666,0,0,0-1.12,1.169A5.663,5.663,0,0,0,7.692.956,4.433,4.433,0,0,0,4.923,0,4.739,4.739,0,0,0,1.4,1.534,5.509,5.509,0,0,0,0,5.3,6.56,6.56,0,0,0,1.748,9.591,37.273,37.273,0,0,0,6.124,13.7c.606.517,1.294,1.1,2.007,1.726a1.035,1.035,0,0,0,1.362,0c.714-.624,1.4-1.21,2.008-1.727A37.256,37.256,0,0,0,15.876,9.59,6.559,6.559,0,0,0,17.624,5.3,5.508,5.508,0,0,0,16.226,1.534Zm0,0"/></svg>