<svg xmlns="http://www.w3.org/2000/svg" width="17.284" height="17.28" viewBox="0 0 17.284 17.28"><defs><style>.a{fill:#fff;}</style></defs><path class="a" d="M8.569,36.035A4.43,4.43,0,1,0,13,40.465,4.423,4.423,0,0,0,8.569,36.035Zm0,7.311a2.88,2.88,0,1,1,2.88-2.88A2.886,2.886,0,0,1,8.569,43.345Zm5.645-7.492a1.033,1.033,0,1,1-1.033-1.033A1.031,1.031,0,0,1,14.214,35.853ZM17.148,36.9a5.114,5.114,0,0,0-1.4-3.621,5.148,5.148,0,0,0-3.621-1.4c-1.427-.081-5.7-.081-7.13,0a5.14,5.14,0,0,0-3.621,1.392A5.131,5.131,0,0,0-.014,36.9c-.081,1.427-.081,5.7,0,7.13a5.114,5.114,0,0,0,1.4,3.621A5.154,5.154,0,0,0,5,49.044c1.427.081,5.7.081,7.13,0a5.114,5.114,0,0,0,3.621-1.4,5.148,5.148,0,0,0,1.4-3.621C17.229,42.6,17.229,38.329,17.148,36.9Zm-1.843,8.656A2.916,2.916,0,0,1,13.663,47.2c-1.137.451-3.837.347-5.094.347s-3.96.1-5.094-.347a2.916,2.916,0,0,1-1.643-1.643c-.451-1.137-.347-3.837-.347-5.094s-.1-3.96.347-5.094a2.916,2.916,0,0,1,1.643-1.643c1.137-.451,3.837-.347,5.094-.347s3.96-.1,5.094.347a2.916,2.916,0,0,1,1.643,1.643c.451,1.137.347,3.837.347,5.094S15.756,44.425,15.305,45.559Z" transform="translate(0.075 -31.825)"/></svg>