<svg xmlns="http://www.w3.org/2000/svg" width="15.3" height="18.133" viewBox="0 0 15.3 18.133"><path d="M54.592,4.25H52.434a4.817,4.817,0,0,0-9.567,0H40.708A.708.708,0,0,0,40,4.958V17.425a.708.708,0,0,0,.708.708H54.592a.708.708,0,0,0,.708-.708V4.958A.708.708,0,0,0,54.592,4.25ZM47.65,1.417A3.405,3.405,0,0,1,51,4.25H44.3A3.405,3.405,0,0,1,47.65,1.417Zm6.234,15.3H41.417V5.667h1.417V7.792a.708.708,0,0,0,1.417,0V5.667h6.8V7.792a.708.708,0,0,0,1.417,0V5.667h1.417Z" transform="translate(-40 0)"/></svg>