<svg xmlns="http://www.w3.org/2000/svg" width="12" height="12" viewBox="0 0 12 12"><defs><style>.a{fill:#fff;}</style></defs><path class="a" d="M14.77,13.956l4.944-4.97a.577.577,0,0,0,0-.849.57.57,0,0,0-.845,0l-4.944,4.97L8.956,8.162a.542.542,0,0,0-.82,0,.6.6,0,0,0,0,.849l4.944,4.945-4.944,4.97a.577.577,0,0,0,0,.849.647.647,0,0,0,.422.175.544.544,0,0,0,.422-.175l4.969-4.97,4.969,4.945a.769.769,0,0,0,.422.175.622.622,0,0,0,.422-.175.577.577,0,0,0,0-.849Z" transform="translate(-7.95 -7.95)"/></svg>