<svg xmlns="http://www.w3.org/2000/svg" width="21.5" height="17.462" viewBox="0 0 21.5 17.462"><defs><style>.a{fill:#fff;}</style></defs><path class="a" d="M19.29,52.434c.014.191.014.382.014.573A12.451,12.451,0,0,1,6.766,65.544,12.452,12.452,0,0,1,0,63.566a9.116,9.116,0,0,0,1.064.055,8.825,8.825,0,0,0,5.47-1.883,4.414,4.414,0,0,1-4.12-3.056,5.557,5.557,0,0,0,.832.068,4.661,4.661,0,0,0,1.16-.15A4.407,4.407,0,0,1,.873,54.275v-.055a4.438,4.438,0,0,0,1.992.559A4.413,4.413,0,0,1,1.5,48.887,12.525,12.525,0,0,0,10.586,53.5a4.974,4.974,0,0,1-.109-1.009A4.411,4.411,0,0,1,18.1,49.474a8.675,8.675,0,0,0,2.8-1.064,4.394,4.394,0,0,1-1.937,2.428,8.833,8.833,0,0,0,2.537-.682A9.472,9.472,0,0,1,19.29,52.434Z" transform="translate(0 -48.082)"/></svg>