<svg xmlns="http://www.w3.org/2000/svg" width="21.059" height="14.807" viewBox="0 0 21.059 14.807"><defs><style>.a{fill:#fff;}</style></defs><path class="a" d="M35.551,66.317a2.646,2.646,0,0,0-1.862-1.874C32.047,64,25.462,64,25.462,64s-6.585,0-8.227.443a2.646,2.646,0,0,0-1.862,1.874,29.792,29.792,0,0,0,0,10.2,2.607,2.607,0,0,0,1.862,1.844c1.642.443,8.227.443,8.227.443s6.585,0,8.227-.443a2.607,2.607,0,0,0,1.862-1.844,29.792,29.792,0,0,0,0-10.2ZM23.309,74.549V68.287l5.5,3.131Z" transform="translate(-14.933 -64)"/></svg>